<svg width="256" height="256" viewBox="0 0 256 256" fill="none" xmlns="http://www.w3.org/2000/svg">
<rect width="256" height="256" fill="white"/>
<g clip-path="url(#clip0_1230_461)">
<path fill-rule="evenodd" clip-rule="evenodd" d="M128 28.3572C183 28.3572 227.643 73 227.643 128C227.643 183 183 227.643 128 227.643C73 227.643 28.3571 183 28.3571 128C28.3571 73 73 28.3572 128 28.3572Z" fill="#FEFEFE"/>
<path fill-rule="evenodd" clip-rule="evenodd" d="M172.643 87.2858L214.786 141.214C215.857 182.643 161.571 231.214 110.5 211.929L83.3571 176.571L124.071 120.857C124.071 120.857 173.357 86.9286 172.643 87.2858Z" fill="#332C2B" fill-opacity="0.14902"/>
<path fill-rule="evenodd" clip-rule="evenodd" d="M85.5 78.3572H159.786L173.357 86.9286V174.786C173.357 176.571 172.286 177.643 170.5 177.643H85.5C83.7143 177.643 82.6429 176.571 82.6429 174.786V81.2143C82.6429 79.4286 83.7143 78.3572 85.5 78.3572Z" fill="#2BBCFF"/>
<path fill-rule="evenodd" clip-rule="evenodd" d="M85.5 78.3572H159.786L173.357 86.9286V87.6429L160.143 79.4286H85.5C84.0714 79.4286 83 80.5 83 81.9286V175.857C82.6429 175.5 82.6429 175.143 82.6429 174.786V81.2143C82.6429 79.4286 83.7143 78.3572 85.5 78.3572Z" fill="#53C6FC"/>
<path fill-rule="evenodd" clip-rule="evenodd" d="M111.929 78.7142H152.286V113.714H111.929V78.7142Z" fill="#BDEAFF"/>
<path fill-rule="evenodd" clip-rule="evenodd" d="M94.0714 132.643H161.571C162.643 132.643 163.357 133.357 163.357 134.071V175.5H92.2857V134.071C92.2857 133.357 93 132.643 94.0714 132.643Z" fill="#BDEAFF"/>
<path fill-rule="evenodd" clip-rule="evenodd" d="M92.2857 170.857H163.357V175.5H92.2857V170.857Z" fill="#006498"/>
<path fill-rule="evenodd" clip-rule="evenodd" d="M138.714 83.7142H142.286C143.357 83.7142 144.429 84.4285 144.429 85.4999V99.7857C144.429 100.857 143.357 101.929 142.286 101.929H138.714C137.643 101.929 136.571 100.857 136.571 99.7857V85.4999C136.571 84.4285 137.643 83.7142 138.714 83.7142Z" fill="#006498"/>
<path fill-rule="evenodd" clip-rule="evenodd" d="M93.7143 83.7142C97.2857 83.7142 99.7857 86.2142 99.7857 89.7857C99.7857 92.9999 97.2857 95.4999 93.7143 95.4999C90.5 95.4999 87.6429 92.9999 87.6429 89.7857C87.6429 86.2142 90.5 83.7142 93.7143 83.7142Z" fill="#FEFEFE"/>
<path fill-rule="evenodd" clip-rule="evenodd" d="M98.3571 163H157.286C158 163 158.357 163.357 158.357 164.071C158.357 164.429 158 165.143 157.286 165.143H98.3571C97.6428 165.143 97.2857 164.429 97.2857 164.071C97.2857 163.357 97.6428 163 98.3571 163Z" fill="#006498"/>
<path fill-rule="evenodd" clip-rule="evenodd" d="M98.3571 151.214H157.286C158 151.214 158.357 151.571 158.357 152.286C158.357 152.643 158 153 157.286 153H98.3571C97.6428 153 97.2857 152.643 97.2857 152.286C97.2857 151.571 97.6428 151.214 98.3571 151.214Z" fill="#006498"/>
<path fill-rule="evenodd" clip-rule="evenodd" d="M98.3571 139.071H157.286C158 139.071 158.357 139.786 158.357 140.143C158.357 140.857 158 141.214 157.286 141.214H98.3571C97.6428 141.214 97.2857 140.857 97.2857 140.143C97.2857 139.786 97.6428 139.071 98.3571 139.071Z" fill="#006498"/>
<path fill-rule="evenodd" clip-rule="evenodd" d="M87.2857 171.571C88.3571 171.571 89.0714 172.286 89.0714 173.357C89.0714 174.071 88.3571 174.786 87.2857 174.786C86.2143 174.786 85.5 174.071 85.5 173.357C85.5 172.286 86.2143 171.571 87.2857 171.571Z" fill="#FEFEFE"/>
<path fill-rule="evenodd" clip-rule="evenodd" d="M168.357 171.571C169.429 171.571 170.143 172.286 170.143 173.357C170.143 174.071 169.429 174.786 168.357 174.786C167.286 174.786 166.571 174.071 166.571 173.357C166.571 172.286 167.286 171.571 168.357 171.571Z" fill="#FEFEFE"/>
<path fill-rule="evenodd" clip-rule="evenodd" d="M111.929 78.7142H104.429V113.714H111.929V78.7142Z" fill="#006498"/>
<path fill-rule="evenodd" clip-rule="evenodd" d="M173.357 174.071V174.786C173.357 176.571 172.286 177.643 170.5 177.643H85.5C83.7143 177.643 82.6429 176.571 82.6429 174.786V174.071C82.6429 175.5 83.7143 176.929 85.5 176.929H170.5C172.286 176.929 173.357 175.5 173.357 174.071Z" fill="#0EA5EB"/>
<path fill-rule="evenodd" clip-rule="evenodd" d="M128 28C183.357 28 228 72.6429 228 128C228 183.357 183.357 228 128 228C72.6429 228 28 183.357 28 128C28 72.6429 72.6429 28 128 28ZM128 44.4286C174.071 44.4286 211.571 81.9286 211.571 128C211.571 174.071 174.071 211.571 128 211.571C81.9286 211.571 44.4286 174.071 44.4286 128C44.4286 81.9286 81.9286 44.4286 128 44.4286Z" fill="#2979FF"/>
</g>
<defs>
<clipPath id="clip0_1230_461">
<rect width="200" height="200" fill="white" transform="translate(28 28)"/>
</clipPath>
</defs>
</svg>
